<svg width="0" height="0" class="hidden">
  <symbol xmlns="http://www.w3.org/2000/svg" viewBox="-0.3 0 18.079 20.329" id="loyalty">
    <defs>
      <clipPath clipPathUnits="userSpaceOnUse" id="a">
        <path d="M473.452 610.624h28.571v-34.949h-28.571z"></path>
      </clipPath>
    </defs>
    <g clip-path="url(#a)" transform="matrix(.35278 0 0 -.35278 -167.323 215.415)">
      <path d="M475.41 610.624a1.959 1.959 0 01-1.795-2.737c.179-.408.463-1.249.463-1.985v-28.89a1.335 1.335 0 112.669 0v28.89c0 .736.283 1.577.459 1.985a1.958 1.958 0 01-1.795 2.737m21.741-13.65c-.27-.368-.267-.863.008-1.198a31.766 31.766 0 014.397-4.395c1.255-1.025-.381-1.772-.748-1.928-7.47-3.191-14.934 3.485-22.4 1.452v15.76c7.478 2.034 14.954-4.671 22.43-1.44.366.157.699.119.86-.127.16-.244.12-.664-.103-1.075a63.255 63.255 0 00-4.444-7.05"></path>
    </g>
  </symbol>

  <symbol xmlns="http://www.w3.org/2000/svg" viewBox="0 0 392.362 392.361" id="arrow-up">
    <path d="M286.935 197.287L159.028 69.381c-3.613-3.617-7.895-5.424-12.847-5.424s-9.233 1.807-12.85 5.424L5.424 197.287C1.807 200.904 0 205.186 0 210.134s1.807 9.233 5.424 12.847c3.621 3.617 7.902 5.425 12.85 5.425h255.813c4.949 0 9.233-1.808 12.848-5.425 3.613-3.613 5.427-7.898 5.427-12.847s-1.814-9.23-5.427-12.847z"></path>
  </symbol>

   <symbol xmlns="http://www.w3.org/2000/svg" viewBox="0 0 15.59 16.31" id="human_full">
    <title>human_Ресурс 1</title>
    <path d="M15.11 12.71a1.82 1.82 0 00-1-1.29l-2.81-1.29-1.16-.88a.8.8 0 00-.19-.38V7.44a7.55 7.55 0 00.72-1.32 1.7 1.7 0 00.77-1.32c0-.69-.21-.85-.42-.86C11 3.47 11.24 0 7.71 0 3.92 0 4.46 4 4.46 4c-.2 0-.42.17-.38.8a1.76 1.76 0 00.76 1.32 9.32 9.32 0 00.72 1.32v1.45a.78.78 0 00-.19.36l-1.16.87v.05L1.5 11.42a1.81 1.81 0 00-1 1.29L0 15.15s.46 1.16 7.8 1.16 7.79-1.16 7.79-1.16z"></path>
  </symbol>
</svg>

